<svg width="24" height="24" viewBox="0 0 24 24" fill="none" xmlns="http://www.w3.org/2000/svg">
  <path d="M20.9471 8.305C20.937 7.54762 20.7952 6.79777 20.5281 6.089C20.2964 5.49115 19.9426 4.9482 19.4892 4.49483C19.0359 4.04146 18.4929 3.68765 17.8951 3.456C17.1954 3.19336 16.4562 3.05134 15.7091 3.036C14.7471 2.993 14.4421 2.981 12.0001 2.981C9.55807 2.981 9.24507 2.981 8.29007 3.036C7.54323 3.05145 6.80442 3.19347 6.10507 3.456C5.50713 3.68749 4.96409 4.04124 4.5107 4.49463C4.05732 4.94802 3.70356 5.49106 3.47207 6.089C3.2089 6.78813 3.06719 7.52711 3.05307 8.274C3.01007 9.237 2.99707 9.542 2.99707 11.984C2.99707 14.426 2.99707 14.738 3.05307 15.694C3.06807 16.442 3.20907 17.18 3.47207 17.881C3.70395 18.4788 4.05797 19.0216 4.51151 19.4748C4.96505 19.928 5.50813 20.2816 6.10607 20.513C6.8035 20.7862 7.54244 20.9384 8.29107 20.963C9.25407 21.006 9.55907 21.019 12.0011 21.019C14.4431 21.019 14.7561 21.019 15.7111 20.963C16.4582 20.9483 17.1974 20.8066 17.8971 20.544C18.4948 20.3121 19.0376 19.9582 19.4909 19.5048C19.9442 19.0515 20.2982 18.5087 20.5301 17.911C20.7931 17.211 20.9341 16.473 20.9491 15.724C20.9921 14.762 21.0051 14.457 21.0051 12.014C21.0031 9.572 21.0031 9.262 20.9471 8.305ZM11.9941 16.602C9.44007 16.602 7.37107 14.533 7.37107 11.979C7.37107 9.425 9.44007 7.356 11.9941 7.356C13.2202 7.356 14.396 7.84306 15.263 8.71004C16.13 9.57703 16.6171 10.7529 16.6171 11.979C16.6171 13.2051 16.13 14.381 15.263 15.248C14.396 16.1149 13.2202 16.602 11.9941 16.602ZM16.8011 8.263C16.6595 8.26313 16.5192 8.23534 16.3884 8.18121C16.2575 8.12708 16.1386 8.04768 16.0385 7.94755C15.9384 7.84743 15.859 7.72854 15.8049 7.59769C15.7507 7.46684 15.7229 7.3266 15.7231 7.185C15.7231 7.0435 15.7509 6.90339 15.8051 6.77266C15.8592 6.64193 15.9386 6.52315 16.0387 6.42309C16.1387 6.32304 16.2575 6.24367 16.3882 6.18952C16.519 6.13537 16.6591 6.1075 16.8006 6.1075C16.9421 6.1075 17.0822 6.13537 17.2129 6.18952C17.3436 6.24367 17.4624 6.32304 17.5625 6.42309C17.6625 6.52315 17.7419 6.64193 17.7961 6.77266C17.8502 6.90339 17.8781 7.0435 17.8781 7.185C17.8781 7.781 17.3961 8.263 16.8011 8.263Z" fill="#AE7B3C"/>
  <path d="M11.9942 14.982C13.6527 14.982 14.9972 13.6375 14.9972 11.979C14.9972 10.3205 13.6527 8.976 11.9942 8.976C10.3357 8.976 8.99121 10.3205 8.99121 11.979C8.99121 13.6375 10.3357 14.982 11.9942 14.982Z" fill="#AE7B3C"/>
</svg>